# xmcd
# 
# Track frame offsets:
#     150
#     22095
#     65080
#     86530
#     118385
#     144342
#     163537
#     199610
#     222022
# 
# Disc length: 3326
# 
# Revision: 2
# Processed by: cddbd v1.5.2PL0 Copyright (c) Steve Scherf et al.
# Submitted via: BonkEnc v1.0.8
# 
DISCID=800cfc09
DTITLE=Manhattan Trinity - American Meditation
DYEAR=1997
DGENRE=Jazz
TTITLE0=Quiet Temple
TTITLE1=I Have A Dream
TTITLE2=Lament
TTITLE3=Piano Sonata No.2 in B-Flat Minor OP.35
TTITLE4=God Bless The Child
TTITLE5=The Preacher
TTITLE6=Cry Me A River
TTITLE7=Blues For M.L.K.
TTITLE8=I Wish I Knew How It World Feel To Be Free
EXTD=YEAR: 1997
EXTT0=
EXTT1=
EXTT2=
EXTT3=
EXTT4=
EXTT5=
EXTT6=
EXTT7=
EXTT8=
PLAYORDER=
